# xmcd
#
# Track frame offsets: 
#        150
#        19312
#        47184
#        99176
#        153250
#
# Disc length: 2654 seconds
#
# Revision: 0
# Processed by: cddbd v1.5.2PL0 Copyright (c) Steve Scherf et al.
# Submitted via: ExactAudioCopy v1.0b1
#
DISCID=320a5c05
DTITLE=Quicksilver Messenger Service  - Maiden of the Cancer Moon - Di
DTITLE=sc 1
DYEAR=1900
DGENRE=
TTITLE0=Back Door Man
TTITLE1=Codine
TTITLE2=Mona
TTITLE3=Gold And Silver
TTITLE4=Smokestack Lightning
EXTD=
EXTT0=
EXTT1=
EXTT2=
EXTT3=
EXTT4=
PLAYORDER=
